<?xml version="1.0" encoding="UTF-8"?>
<svg width="24px" height="24px" viewBox="0 0 24 24" version="1.1" xmlns="http://www.w3.org/2000/svg" xmlns:xlink="http://www.w3.org/1999/xlink">
    <title>1_Common/common_执行此节点</title>
    <g id="1_Common/common_执行此节点" stroke="none" stroke-width="1" fill="none" fill-rule="evenodd">
        <g id="icon_sort" opacity="0.297177269">
            <rect id="矩形" x="0" y="0" width="24" height="24"></rect>
        </g>
        <path d="M15.0681105,14.118583 C15.2072507,13.880057 15.5134096,13.7994889 15.7519355,13.938629 L15.7519355,13.938629 L20.2596181,16.5681105 C20.3341199,16.6115699 20.3961126,16.6735627 20.439572,16.7480645 C20.5787122,16.9865904 20.498144,17.2927493 20.2596181,17.4318895 L20.2596181,17.4318895 L15.7519355,20.061371 C15.6754675,20.1059773 15.5885273,20.1294815 15.5,20.1294815 C15.2238576,20.1294815 15,19.9056239 15,19.6294815 L15,19.6294815 L15,14.3705185 C15,14.2819912 15.0235042,14.195051 15.0681105,14.118583 Z M12,4 C16.418278,4 20,7.581722 20,12 C20,13.0639344 19.79231,14.0793603 19.4152614,15.0079462 L18.5331971,14.5186766 C18.8347003,13.7371229 19,12.8878654 19,12 C19,8.13400675 15.8659932,5 12,5 C8.13400675,5 5,8.13400675 5,12 C5,15.8659932 8.13400675,19 12,19 C12.695354,19 13.3670274,18.8986113 14.0010432,18.7098107 L14.0003581,19.7478729 C13.3610104,19.9124613 12.6907281,20 12,20 C7.581722,20 4,16.418278 4,12 C4,7.581722 7.581722,4 12,4 Z M12,10 C13.1045695,10 14,10.8954305 14,12 C14,13.1045695 13.1045695,14 12,14 C10.8954305,14 10,13.1045695 10,12 C10,10.8954305 10.8954305,10 12,10 Z" id="形状结合" fill-opacity="0.7" fill="#FFFFFF" fill-rule="nonzero"></path>
        <rect id="矩形" opacity="0.296502976" x="13" y="13" width="8" height="8"></rect>
    </g>
</svg>