<?xml version="1.0" encoding="utf-8"?>
<!-- Svg Vector Icons : http://www.onlinewebfonts.com/icon -->
<!DOCTYPE svg PUBLIC "-//W3C//DTD SVG 1.1//EN" "http://www.w3.org/Graphics/SVG/1.1/DTD/svg11.dtd">
<svg version="1.1" xmlns="http://www.w3.org/2000/svg" xmlns:xlink="http://www.w3.org/1999/xlink" x="0px" y="0px" viewBox="0 0 1000 1000" enable-background="new 0 0 1000 1000" xml:space="preserve">
<metadata> Svg Vector Icons : http://www.onlinewebfonts.com/icon </metadata>
<g><path d="M10,10v980h980V10H10z M175.2,725.1l116.4-67.2c7.9,5.4,16,10.2,22.1,13.7c1.7,1,3.6,2.1,5.6,3.2l-118.3,68.3C192.3,737.7,183.3,731.6,175.2,725.1z M238.9,765.6l118.7-68.5c10.1,5.8,20.8,12,31.8,18.3l-118.7,68.5C259.1,777.2,248.3,771,238.9,765.6z M309.1,806.1l118.7-68.5c5.7,3.3,11.4,6.6,16.8,9.7c5.2,3,9.7,5.6,13.7,7.8l-118.8,68.6C329.3,817.8,319.1,811.9,309.1,806.1z M860.6,612.8c0,54.1-0.6,67.3-12.5,87.9s-49.5,43.2-70.1,55.1c-40.7,23.5-129.1,74.6-195.4,112.8c-46.8,27-58.7,33.1-82.6,33.1c-23.8,0-35.8-6.1-82.6-33.1c-12.5-7.2-25.8-14.9-39.4-22.8l134.4-77.6c10-2.2,20.5-8,43-21c44.4-25.7,103.7-59.9,131-75.7c13.9-8,39-23.1,47-37c8-13.9,8.4-22.7,8.4-59c0-51.3,0-119.8,0-151.3c0-16-0.4-45.2-8.4-59.1c-8-13.8-33.1-28.9-47-36.9c-27.3-15.8-86.6-50-131.1-75.7C524,234.6,516,230.5,500,230.5c-16,0-24,4.1-55.4,22.2c-44.4,25.7-103.7,59.9-131.1,75.7c-13.8,8-39,23-46.9,36.9c-8,13.8-8.4,22.8-8.4,59.1c0,51.3,0,119.7,0,151.3c0,14.2,0.4,38.7,6,53.8l-114.7,66.2c-9.4-22.1-10-60.9-10-82.9c0-47,0-149,0-225.5c0-54.1,0.7-67.4,12.6-88.1c11.9-20.6,49.4-43,70-54.9c40.7-23.5,129.1-74.6,195.4-112.8c46.8-27,58.7-33.1,82.6-33.1s35.8,6.1,82.6,33.1c66.3,38.3,154.7,89.3,195.4,112.8c20.6,11.9,58.1,34.3,70,54.9c11.9,20.6,12.6,64.3,12.6,88.1C860.6,434.2,860.6,536.3,860.6,612.8z"/></g>
</svg>